<svg height="511pt" viewBox="-19 1 511 511.99995" width="511pt" xmlns="http://www.w3.org/2000/svg"><path d="m268.515625 307.800781-49.453125-100.203125-49.453125 100.203125-110.582031 16.066407 80.019531 78-18.890625 110.132812 98.90625-52 98.90625 52-18.890625-110.132812 80.019531-78zm9.621094 149.375-59.074219-31.058593-59.074219 31.058593 11.28125-65.78125-47.792969-46.585937 66.046876-9.597656 29.539062-59.847657 29.535156 59.847657 66.046875 9.597656-47.792969 46.585937zm0 0"/><path d="m473.039062 134.105469-76.675781-11.144531-34.289062-69.476563-34.292969 69.476563-76.671875 11.144531 55.480469 54.082031-13.097656 76.367188 68.582031-36.058594 68.582031 36.058594-13.097656-76.367188zm-82.214843 75.621093-28.75-15.113281-28.75 15.113281 5.492187-32.011718-23.261718-22.667969 32.144531-4.671875 14.375-29.125 14.375 29.125 32.140625 4.671875-23.257813 22.667969zm0 0"/><path d="m104.242188 163.625 64.117187 33.710938-12.242187-71.398438 51.871093-50.5625-71.683593-10.414062-32.0625-64.960938-32.058594 64.960938-71.683594 10.414062 51.871094 50.5625-12.242188 71.394531zm-12.140626-71.253906 12.140626-24.605469 12.144531 24.605469 27.152343 3.945312-19.648437 19.152344 4.636719 27.039062-24.285156-12.765624-24.285157 12.765624 4.640625-27.039062-19.648437-19.152344zm0 0"/></svg>